<?xml version="1.0" encoding="UTF-8" standalone="no"?>
<!DOCTYPE svg PUBLIC "-//W3C//DTD SVG 1.1//EN" "http://www.w3.org/Graphics/SVG/1.1/DTD/svg11.dtd">
<svg width="375px" height="247.29px" viewBox="0 0 1175 775" version="1.1" xmlns="http://www.w3.org/2000/svg" xmlns:xlink="http://www.w3.org/1999/xlink" xml:space="preserve" style="fill-rule:evenodd;clip-rule:evenodd;stroke-miterlimit:1.41421;">
    <g transform="matrix(4.16667,0,0,4.16667,0,0)">
        <path d="M273.731,2.073C270.053,2.073 267.081,5.06 267.081,8.729C267.081,12.402 270.053,15.38 273.731,15.38C277.399,15.38 280.374,12.402 280.374,8.729C280.374,5.06 277.399,2.073 273.731,2.073ZM281.573,8.729C281.573,13.065 278.065,16.576 273.731,16.576C269.391,16.576 265.872,13.065 265.872,8.729C265.872,4.392 269.391,0.876 273.731,0.876C278.065,0.876 281.573,4.392 281.573,8.729Z" style="fill:rgb(243,111,33);fill-rule:nonzero;"/>
        <path d="M273.731,2.073L273.731,1.938C269.977,1.938 266.936,4.981 266.936,8.729C266.936,12.479 269.977,15.523 273.731,15.523C277.481,15.523 280.516,12.479 280.516,8.729C280.516,4.981 277.481,1.938 273.731,1.938L273.731,2.219C277.323,2.224 280.227,5.137 280.237,8.729C280.227,12.323 277.323,15.231 273.731,15.239C270.135,15.231 267.215,12.323 267.215,8.729C267.215,5.137 270.135,2.224 273.731,2.219L273.731,2.073ZM281.573,8.729L281.438,8.729C281.438,10.858 280.565,12.781 279.174,14.179C277.782,15.569 275.862,16.433 273.731,16.433C271.596,16.433 269.661,15.569 268.272,14.179C266.875,12.781 266.02,10.858 266.02,8.729C266.02,6.6 266.875,4.668 268.272,3.276C269.661,1.88 271.596,1.015 273.731,1.015C275.862,1.015 277.782,1.88 279.174,3.276C280.565,4.668 281.438,6.6 281.438,8.729L281.719,8.729C281.719,4.313 278.141,0.735 273.731,0.735C269.311,0.735 265.737,4.313 265.737,8.729C265.737,13.144 269.311,16.716 273.731,16.716C278.141,16.716 281.719,13.144 281.719,8.729L281.573,8.729Z" style="fill:rgb(243,111,33);fill-rule:nonzero;"/>
        <path d="M272.071,8.044L273.399,8.044C274.508,8.044 275.543,7.987 275.543,6.695C275.543,5.617 274.606,5.448 273.745,5.448L272.071,5.448L272.071,8.044ZM270.793,4.416L273.952,4.416C275.887,4.416 276.809,5.187 276.809,6.752C276.809,8.231 275.883,8.846 274.665,8.975L276.993,12.577L275.629,12.577L273.415,9.07L272.071,9.07L272.071,12.577L270.793,12.577L270.793,4.416Z" style="fill:rgb(243,111,33);fill-rule:nonzero;"/>
        <path d="M272.071,8.044L272.071,8.127L273.399,8.127C273.952,8.127 274.497,8.118 274.915,7.931C275.346,7.751 275.629,7.364 275.629,6.695C275.629,6.13 275.374,5.777 275.008,5.591C274.643,5.403 274.184,5.364 273.745,5.364L272.071,5.364L271.985,5.364L271.985,8.127L272.071,8.127L272.071,8.044L272.147,8.044L272.147,5.531L273.745,5.531C274.616,5.543 275.452,5.689 275.463,6.695C275.452,7.319 275.219,7.61 274.85,7.776C274.475,7.941 273.952,7.963 273.399,7.963L272.071,7.963L272.071,8.044L272.147,8.044L272.071,8.044ZM270.793,4.416L270.793,4.506L273.952,4.506C275.874,4.52 276.719,5.229 276.727,6.752C276.719,8.189 275.85,8.758 274.655,8.89L274.52,8.905L276.834,12.493L275.678,12.493L273.463,8.982L272.071,8.982L271.985,8.982L271.985,12.493L270.879,12.493L270.879,4.416L270.793,4.416L270.793,4.506L270.793,4.416L270.717,4.416L270.717,12.663L272.147,12.663L272.147,9.156L273.366,9.156L275.59,12.663L277.151,12.663L274.731,8.927L274.665,8.975L274.67,9.059C275.901,8.938 276.907,8.273 276.897,6.752C276.897,5.954 276.663,5.337 276.167,4.934C275.667,4.527 274.936,4.335 273.952,4.335L270.717,4.335L270.717,4.416L270.793,4.416Z" style="fill:rgb(243,111,33);fill-rule:nonzero;"/>
        <path d="M273.731,2.084C270.042,2.084 267.081,5.06 267.081,8.731C267.081,12.402 270.042,15.385 273.731,15.385C277.399,15.385 280.374,12.402 280.374,8.731C280.374,5.06 277.399,2.084 273.731,2.084ZM281.573,8.731C281.573,13.069 278.053,16.576 273.731,16.576C269.391,16.576 265.872,13.069 265.872,8.731C265.872,4.395 269.391,0.876 273.731,0.876C278.053,0.876 281.573,4.395 281.573,8.731Z" style="fill:rgb(243,111,33);fill-rule:nonzero;"/>
        <path d="M273.731,2.084L273.731,1.938C269.967,1.938 266.936,4.983 266.936,8.731C266.936,12.479 269.967,15.523 273.731,15.523C277.481,15.523 280.516,12.479 280.516,8.731C280.516,4.983 277.481,1.938 273.731,1.938L273.731,2.219C277.323,2.232 280.227,5.137 280.237,8.731C280.227,12.323 277.323,15.239 273.731,15.242C270.124,15.239 267.215,12.323 267.215,8.731C267.215,5.137 270.124,2.232 273.731,2.219L273.731,2.084ZM281.573,8.731L281.438,8.731C281.438,10.862 280.565,12.781 279.174,14.185C277.782,15.571 275.85,16.433 273.731,16.433C269.467,16.433 266.02,12.99 266.02,8.731C266.02,6.605 266.875,4.673 268.272,3.277C269.661,1.882 271.596,1.024 273.731,1.024C275.85,1.024 277.782,1.882 279.174,3.277C280.565,4.673 281.438,6.605 281.438,8.731L281.719,8.731C281.719,4.316 278.129,0.737 273.731,0.737C269.311,0.737 265.737,4.316 265.737,8.731C265.737,13.146 269.311,16.707 273.731,16.716C278.129,16.716 281.719,13.146 281.719,8.731L281.573,8.731Z" style="fill:rgb(243,111,33);fill-rule:nonzero;"/>
        <path d="M272.061,8.044L273.399,8.044C274.508,8.044 275.543,7.99 275.543,6.695C275.543,5.617 274.606,5.45 273.745,5.45L272.061,5.45L272.061,8.044ZM270.793,4.416L273.952,4.416C275.887,4.416 276.809,5.187 276.809,6.752C276.809,8.231 275.883,8.846 274.655,8.975L276.993,12.581L275.629,12.581L273.415,9.07L272.061,9.07L272.061,12.581L270.793,12.581L270.793,4.416Z" style="fill:rgb(243,111,33);fill-rule:nonzero;"/>
        <path d="M272.061,8.044L272.061,8.127L273.399,8.127C273.952,8.127 274.497,8.118 274.915,7.934C275.346,7.751 275.629,7.364 275.618,6.695C275.629,6.132 275.366,5.777 275.008,5.591C274.643,5.403 274.184,5.367 273.745,5.367L272.061,5.367L271.985,5.367L271.985,8.127L272.061,8.127L272.061,8.044L272.147,8.044L272.147,5.531L273.745,5.531C274.606,5.546 275.452,5.689 275.452,6.695C275.444,7.32 275.219,7.61 274.85,7.776C274.475,7.941 273.952,7.963 273.399,7.963L272.061,7.963L272.061,8.044L272.147,8.044L272.061,8.044ZM270.793,4.416L270.793,4.506L273.952,4.506C275.874,4.52 276.719,5.229 276.727,6.752C276.719,8.189 275.85,8.758 274.655,8.89L274.508,8.905L276.834,12.493L275.678,12.493L273.463,8.982L272.061,8.982L271.985,8.982L271.985,12.493L270.879,12.493L270.879,4.416L270.793,4.416L270.793,4.506L270.793,4.416L270.717,4.416L270.717,12.663L272.147,12.663L272.147,9.156L273.366,9.156L275.59,12.663L277.141,12.663L274.731,8.927L274.655,8.975L274.67,9.059C275.901,8.938 276.907,8.278 276.897,6.752C276.897,5.954 276.663,5.337 276.167,4.934C275.667,4.527 274.936,4.335 273.952,4.335L270.717,4.335L270.717,4.416L270.793,4.416Z" style="fill:rgb(243,111,33);fill-rule:nonzero;"/>
        <path d="M273.731,2.084C270.042,2.084 267.081,5.06 267.081,8.731C267.081,12.402 270.042,15.385 273.731,15.385C277.399,15.385 280.374,12.402 280.374,8.731C280.374,5.06 277.399,2.084 273.731,2.084ZM281.573,8.731C281.573,13.069 278.053,16.576 273.731,16.576C269.391,16.576 265.872,13.069 265.872,8.731C265.872,4.395 269.391,0.876 273.731,0.876C278.053,0.876 281.573,4.395 281.573,8.731Z" style="fill:rgb(243,111,33);fill-rule:nonzero;"/>
        <path d="M273.731,2.084L273.731,1.938C269.967,1.938 266.936,4.983 266.936,8.731C266.936,12.479 269.967,15.523 273.731,15.523C277.481,15.523 280.516,12.479 280.516,8.731C280.516,4.983 277.481,1.938 273.731,1.938L273.731,2.219C277.323,2.232 280.227,5.137 280.237,8.731C280.227,12.323 277.323,15.239 273.731,15.242C270.124,15.239 267.215,12.323 267.215,8.731C267.215,5.137 270.124,2.232 273.731,2.219L273.731,2.084ZM281.573,8.731L281.438,8.731C281.438,10.862 280.565,12.781 279.174,14.185C277.782,15.571 275.85,16.433 273.731,16.433C269.467,16.433 266.02,12.99 266.02,8.731C266.02,6.605 266.875,4.673 268.272,3.277C269.661,1.882 271.596,1.024 273.731,1.024C275.85,1.024 277.782,1.882 279.174,3.277C280.565,4.673 281.438,6.605 281.438,8.731L281.719,8.731C281.719,4.316 278.129,0.737 273.731,0.737C269.311,0.737 265.737,4.316 265.737,8.731C265.737,13.146 269.311,16.707 273.731,16.716C278.129,16.716 281.719,13.146 281.719,8.731L281.573,8.731Z" style="fill:rgb(243,111,33);fill-rule:nonzero;"/>
        <path d="M272.061,8.044L273.399,8.044C274.508,8.044 275.543,7.99 275.543,6.695C275.543,5.617 274.606,5.45 273.745,5.45L272.061,5.45L272.061,8.044ZM270.793,4.416L273.952,4.416C275.887,4.416 276.809,5.187 276.809,6.752C276.809,8.231 275.883,8.846 274.655,8.975L276.993,12.581L275.629,12.581L273.415,9.07L272.061,9.07L272.061,12.581L270.793,12.581L270.793,4.416Z" style="fill:rgb(243,111,33);fill-rule:nonzero;"/>
        <path d="M272.061,8.044L272.061,8.127L273.399,8.127C273.952,8.127 274.497,8.118 274.915,7.934C275.346,7.751 275.629,7.364 275.618,6.695C275.629,6.132 275.366,5.777 275.008,5.591C274.643,5.403 274.184,5.367 273.745,5.367L272.061,5.367L271.985,5.367L271.985,8.127L272.061,8.127L272.061,8.044L272.147,8.044L272.147,5.531L273.745,5.531C274.606,5.546 275.452,5.689 275.452,6.695C275.444,7.32 275.219,7.61 274.85,7.776C274.475,7.941 273.952,7.963 273.399,7.963L272.061,7.963L272.061,8.044L272.147,8.044L272.061,8.044ZM270.793,4.416L270.793,4.506L273.952,4.506C275.874,4.52 276.719,5.229 276.727,6.752C276.719,8.189 275.85,8.758 274.655,8.89L274.508,8.905L276.834,12.493L275.678,12.493L273.463,8.982L272.061,8.982L271.985,8.982L271.985,12.493L270.879,12.493L270.879,4.416L270.793,4.416L270.793,4.506L270.793,4.416L270.717,4.416L270.717,12.663L272.147,12.663L272.147,9.156L273.366,9.156L275.59,12.663L277.141,12.663L274.731,8.927L274.655,8.975L274.67,9.059C275.901,8.938 276.907,8.278 276.897,6.752C276.897,5.954 276.663,5.337 276.167,4.934C275.667,4.527 274.936,4.335 273.952,4.335L270.717,4.335L270.717,4.416L270.793,4.416Z" style="fill:rgb(243,111,33);fill-rule:nonzero;"/>
        <rect x="236.956" y="4.926" width="25.896" height="76.71" style="fill:rgb(243,111,33);fill-rule:nonzero;"/>
        <path d="M26.182,12.609L26.182,51.167L53.647,51.167C64.298,51.167 72.933,42.529 72.933,31.891C72.933,21.244 64.298,12.609 53.647,12.609L26.182,12.609ZM26.182,58.853L26.182,81.636L0.298,81.636L0.298,4.928L76.839,4.928C91.728,4.928 103.792,16.997 103.792,31.891C103.792,46.786 91.728,58.853 76.839,58.853L26.182,58.853Z" style="fill:rgb(243,111,33);fill-rule:nonzero;"/>
        <path d="M142.219,81.636C121.04,81.636 103.862,64.458 103.862,43.277C103.862,22.093 121.04,4.921 142.219,4.921L206.877,4.921C221.768,4.921 233.84,16.999 233.84,31.888L199.264,31.888C199.264,21.244 190.631,12.609 179.993,12.609L158.422,12.609C147.774,12.609 139.139,21.244 139.139,31.888L139.139,54.676C139.139,65.33 147.774,73.955 158.422,73.955L179.993,73.955C190.631,73.955 199.264,65.322 199.264,54.676L233.84,54.676C233.84,69.563 221.768,81.636 206.877,81.636L142.219,81.636Z" style="fill:rgb(243,111,33);fill-rule:nonzero;"/>
        <path d="M0.271,127.601L0.271,94.77L21.039,94.77L21.039,98.791L4.327,98.791L4.327,108.759L19.009,108.759L19.009,112.667L4.327,112.667L4.327,127.601L0.271,127.601Z" style="fill:rgb(35,31,32);fill-rule:nonzero;"/>
        <path d="M31.077,95.304L27.265,95.304L27.265,99.961L31.077,99.961L31.077,95.304ZM37.791,95.304L33.98,95.304L33.98,99.961L37.791,99.961L37.791,95.304ZM23.756,119.937C23.756,121.974 24.062,123.605 24.672,124.829C25.804,127.109 27.92,128.251 31.035,128.251C33.026,128.251 34.72,127.618 36.11,126.366C36.823,125.743 37.422,124.98 37.899,124.066L37.85,127.601L41.316,127.601L41.316,103.663L37.655,103.663L37.655,115.415C37.655,117.757 37.399,119.595 36.891,120.941C35.977,123.443 34.232,124.694 31.678,124.694C29.897,124.694 28.69,123.98 28.033,122.548C27.682,121.771 27.509,120.775 27.509,119.556L27.509,103.663L23.756,103.663L23.756,119.937Z" style="fill:rgb(35,31,32);fill-rule:nonzero;"/>
        <path d="M47.135,127.601L47.135,103.663L50.617,103.663L50.617,107.794C50.896,106.993 51.6,106.009 52.711,104.853C53.831,103.702 55.108,103.128 56.572,103.128C56.636,103.128 56.743,103.132 56.912,103.152C57.075,103.163 57.35,103.193 57.743,103.234L57.743,107.491C57.522,107.443 57.318,107.413 57.144,107.398C56.961,107.384 56.768,107.368 56.538,107.368C54.697,107.368 53.272,108.028 52.288,109.331C51.299,110.63 50.797,112.138 50.797,113.837L50.797,127.601L47.135,127.601Z" style="fill:rgb(35,31,32);fill-rule:nonzero;"/>
        <path d="M85.54,127.601C89.476,127.601 92.35,126.312 94.153,123.757C95.362,122.042 95.967,120.13 95.967,118.011C95.967,115.489 95.296,113.515 93.947,112.089C93.189,111.282 92.042,110.564 90.509,109.919C91.56,109.345 92.362,108.7 92.919,107.999C93.991,106.673 94.527,104.978 94.527,102.902C94.527,101.128 94.09,99.566 93.216,98.209C91.739,95.914 89.254,94.77 85.745,94.77L72.894,94.77L72.894,127.601L85.54,127.601ZM76.856,112.247L84.918,112.247C86.61,112.247 87.964,112.474 89.001,112.939C90.95,113.804 91.924,115.429 91.924,117.812C91.924,119.226 91.581,120.431 90.922,121.433C89.855,123.013 88.085,123.794 85.6,123.794L76.856,123.794L76.856,112.247ZM76.856,98.478L84.088,98.478C85.859,98.478 87.187,98.683 88.085,99.101C89.67,99.847 90.472,101.294 90.472,103.437C90.472,105.571 89.72,107.044 88.231,107.86C87.272,108.388 85.951,108.65 84.235,108.65L76.856,108.65L76.856,98.478Z" style="fill:rgb(35,31,32);fill-rule:nonzero;"/>
        <path d="M101.203,116.157C99.941,117.386 99.307,119.099 99.307,121.321C99.307,123.347 99.952,125.034 101.241,126.378C102.519,127.732 104.175,128.405 106.191,128.405C107.878,128.405 109.427,128.007 110.82,127.216C112.22,126.427 113.292,125.499 114.034,124.429C114.165,125.378 114.366,126.112 114.668,126.636C115.242,127.618 116.163,128.112 117.417,128.112C117.931,128.112 118.344,128.093 118.648,128.044C118.946,128.007 119.378,127.888 119.953,127.714L119.953,124.741C119.718,124.78 119.501,124.818 119.297,124.839C119.091,124.86 118.907,124.876 118.744,124.876C118.247,124.876 117.917,124.749 117.759,124.491C117.602,124.243 117.526,123.902 117.526,123.482L117.526,109.694C117.526,107.435 116.726,105.763 115.138,104.691C113.537,103.622 111.452,103.077 108.89,103.077C106.678,103.077 104.729,103.652 103.055,104.814C101.376,105.972 100.499,108.019 100.429,110.97L103.85,110.97C103.985,109.735 104.279,108.804 104.729,108.175C105.529,107.044 106.894,106.478 108.804,106.478C110.46,106.478 111.733,106.788 112.621,107.403C113.519,108.028 113.96,109.023 113.96,110.388C113.96,111.066 113.871,111.575 113.716,111.927C113.433,112.587 112.865,112.978 112.02,113.091L106.178,113.903C104.132,114.189 102.469,114.927 101.203,116.157ZM104.825,117.88C105.497,117.458 106.494,117.152 107.83,116.958L110.049,116.653C110.721,116.562 111.425,116.411 112.124,116.204C112.837,115.989 113.411,115.728 113.862,115.415L113.862,118.659C113.862,121.136 112.837,122.915 110.802,123.999C109.589,124.665 108.333,124.984 107.049,124.984C105.984,124.984 105.081,124.65 104.301,123.98C103.53,123.308 103.141,122.394 103.141,121.235C103.141,119.693 103.706,118.577 104.825,117.88Z" style="fill:rgb(35,31,32);fill-rule:nonzero;"/>
        <path d="M123.439,119.937C123.439,121.974 123.751,123.605 124.355,124.829C125.485,127.109 127.603,128.251 130.707,128.251C132.708,128.251 134.401,127.626 135.805,126.366C136.518,125.743 137.104,124.98 137.579,124.066L137.542,127.601L141.002,127.601L141.002,103.663L137.336,103.663L137.336,115.415C137.336,117.757 137.081,119.595 136.583,120.941C135.657,123.443 133.915,124.694 131.366,124.694C129.589,124.694 128.369,123.98 127.716,122.548C127.37,121.771 127.179,120.775 127.179,119.556L127.179,103.663L123.439,103.663L123.439,119.937Z" style="fill:rgb(35,31,32);fill-rule:nonzero;"/>
        <path d="M166.354,127.601L166.354,113.722L175.77,113.722C178.78,113.722 181.02,112.767 182.479,110.87C183.928,108.974 184.649,106.739 184.649,104.181C184.649,101.198 183.838,98.884 182.211,97.234C180.579,95.582 178.432,94.77 175.77,94.77L162.305,94.77L162.305,127.601L166.354,127.601ZM178.862,108.689C177.729,109.54 176.247,109.968 174.426,109.968L166.354,109.968L166.354,98.591L174.426,98.591C175.997,98.591 177.215,98.822 178.122,99.281C179.749,100.152 180.553,101.794 180.553,104.198C180.553,106.343 179.993,107.843 178.862,108.689Z" style="fill:rgb(35,31,32);fill-rule:nonzero;"/>
        <path d="M188.325,127.601L188.325,103.663L191.792,103.663L191.792,107.794C192.083,106.993 192.788,106.009 193.909,104.853C195.006,103.702 196.295,103.128 197.747,103.128C197.813,103.128 197.924,103.132 198.098,103.152C198.25,103.163 198.536,103.193 198.924,103.234L198.924,107.491C198.708,107.443 198.512,107.413 198.329,107.398C198.147,107.384 197.94,107.368 197.729,107.368C195.881,107.368 194.461,108.028 193.469,109.331C192.483,110.63 191.985,112.138 191.985,113.837L191.985,127.601L188.325,127.601Z" style="fill:rgb(35,31,32);fill-rule:nonzero;"/>
        <path d="M203.395,106.544C201.538,108.927 200.61,112.138 200.61,116.157C200.61,119.913 201.497,122.907 203.26,125.132C205.014,127.362 207.407,128.472 210.401,128.472C214,128.472 216.663,127.212 218.375,124.694C220.083,122.177 220.942,118.991 220.942,115.126C220.942,111.138 219.965,108.11 218.028,106.058C216.084,104.003 213.708,102.97 210.903,102.97C207.752,102.97 205.258,104.157 203.395,106.544ZM205.901,122.46C204.889,120.757 204.383,118.64 204.383,116.097C204.383,113.439 204.889,111.165 205.901,109.296C206.926,107.421 208.551,106.478 210.792,106.478C213.327,106.478 215.102,107.579 216.133,109.784C216.778,111.187 217.108,113.007 217.108,115.239C217.108,117.71 216.649,119.956 215.754,121.98C214.858,123.999 213.18,125.013 210.754,125.013C208.545,125.013 206.926,124.157 205.901,122.46Z" style="fill:rgb(35,31,32);fill-rule:nonzero;"/>
        <path d="M226.2,100.017C226.26,98.351 226.524,97.13 226.999,96.355C227.856,94.986 229.5,94.297 231.948,94.297C232.182,94.297 232.422,94.308 232.663,94.324C232.907,94.337 233.19,94.357 233.5,94.386L233.5,98.05C233.11,98.019 232.846,98.009 232.67,98C232.508,97.992 232.34,97.986 232.192,97.986C231.083,97.986 230.409,98.304 230.208,98.935C229.987,99.566 229.875,101.183 229.875,103.778L233.5,103.778L233.5,106.946L229.827,106.946L229.827,127.601L226.2,127.601L226.2,106.946L223.17,106.946L223.17,103.778L226.2,103.778L226.2,100.017Z" style="fill:rgb(35,31,32);fill-rule:nonzero;"/>
        <path d="M236.883,94.77L240.608,94.77L240.608,99.326L236.883,99.326L236.883,94.77ZM236.883,103.778L240.608,103.778L240.608,127.601L236.883,127.601L236.883,103.778Z" style="fill:rgb(35,31,32);fill-rule:nonzero;"/>
        <path d="M246.967,126.095C248.311,127.704 250.612,128.517 253.86,128.517C256.872,128.517 259.124,127.737 260.588,126.193C262.062,124.646 262.803,122.802 262.803,120.665C262.803,118.466 262.094,116.849 260.661,115.821C259.762,115.165 258.002,114.489 255.37,113.786L252.94,113.136C251.877,112.857 251.081,112.53 250.536,112.153C249.598,111.538 249.133,110.698 249.133,109.65C249.133,108.7 249.491,107.931 250.206,107.351C250.915,106.771 251.958,106.478 253.352,106.478C255.422,106.478 256.885,107.015 257.722,108.066C258.245,108.81 258.536,109.636 258.601,110.546L262.062,110.546C262.094,108.993 261.657,107.548 260.747,106.204C259.295,104.089 256.92,103.032 253.631,103.032C251.118,103.032 249.124,103.743 247.625,105.132C246.149,106.538 245.397,108.37 245.397,110.638C245.397,112.552 246.186,114.062 247.77,115.15C248.651,115.777 250.026,116.339 251.877,116.849L254.792,117.653C256.359,118.087 257.407,118.466 257.93,118.798C258.769,119.335 259.172,120.112 259.172,121.142C259.172,122.501 258.661,123.495 257.627,124.146C256.594,124.796 255.397,125.12 254.043,125.12C251.764,125.12 250.161,124.47 249.235,123.175C248.731,122.46 248.43,121.433 248.321,120.093L244.784,120.093C244.881,122.474 245.614,124.478 246.967,126.095Z" style="fill:rgb(35,31,32);fill-rule:nonzero;"/>
        <rect x="146.167" y="112.78" width="10.242" height="4.133" style="fill:rgb(35,31,32);fill-rule:nonzero;"/>
        <path d="M0.276,159.148L262.833,159.148" style="fill:none;stroke:rgb(157,159,162);stroke-width:2.01px;"/>
        <path d="M0.276,184.995L262.833,184.995" style="fill:none;stroke:rgb(157,159,162);stroke-width:2.01px;"/>
        <path d="M3.072,172.966L6.646,172.966L4.889,168.046L4.859,168.046L3.072,172.966ZM4.121,166.777L5.671,166.777L9.792,177.323L8.242,177.323L7.089,174.148L2.629,174.148L1.447,177.323L0,177.323L4.121,166.777Z" style="fill:rgb(35,31,32);fill-rule:nonzero;"/>
        <path d="M18.376,170.616C16.677,170.616 16.042,172.079 16.042,173.497C16.042,174.989 16.721,176.392 18.449,176.392C20.163,176.392 20.739,174.931 20.739,173.439C20.739,172.005 20,170.616 18.376,170.616ZM14.831,166.777L16.086,166.777L16.086,170.72L16.115,170.72C16.529,169.878 17.489,169.509 18.553,169.509C20.901,169.509 22.068,171.37 22.068,173.527C22.068,175.698 20.916,177.499 18.582,177.499C17.814,177.499 16.662,177.204 16.115,176.304L16.086,176.304L16.086,177.323L14.831,177.323L14.831,166.777Z" style="fill:rgb(35,31,32);fill-rule:nonzero;"/>
        <path d="M23.531,169.687L24.712,169.687L24.712,171.296L24.742,171.296C25.348,170.056 26.189,169.464 27.548,169.509L27.548,170.839C25.525,170.839 24.786,171.976 24.786,173.925L24.786,177.323L23.531,177.323L23.531,169.687Z" style="fill:rgb(35,31,32);fill-rule:nonzero;"/>
        <path d="M33.251,173.38C32.275,174.103 29.439,173.394 29.439,175.271C29.439,176.097 30.148,176.392 30.917,176.392C32.571,176.392 33.251,175.372 33.251,174.663L33.251,173.38ZM35.289,177.294C35.067,177.427 34.757,177.499 34.388,177.499C33.738,177.499 33.324,177.146 33.324,176.318C32.63,177.146 31.7,177.499 30.636,177.499C29.248,177.499 28.11,176.894 28.11,175.359C28.11,173.63 29.396,173.245 30.695,173.009C32.069,172.73 33.265,172.847 33.265,171.888C33.265,170.78 32.35,170.616 31.566,170.616C30.503,170.616 29.72,170.943 29.661,172.064L28.406,172.064C28.48,170.173 29.927,169.509 31.641,169.509C33.014,169.509 34.506,169.819 34.506,171.607L34.506,175.536C34.506,176.126 34.506,176.392 34.905,176.392C35.023,176.392 35.156,176.362 35.289,176.318L35.289,177.294Z" style="fill:rgb(35,31,32);fill-rule:nonzero;"/>
        <path d="M36.486,169.687L37.668,169.687L37.668,170.898L37.697,170.898C38.229,169.952 39.071,169.509 40.179,169.509C42.188,169.509 42.808,170.661 42.808,172.3L42.808,177.323L41.552,177.323L41.552,172.153C41.552,171.208 40.961,170.616 40.001,170.616C38.48,170.616 37.741,171.636 37.741,173.009L37.741,177.323L36.486,177.323L36.486,169.687Z" style="fill:rgb(35,31,32);fill-rule:nonzero;"/>
        <path d="M48.008,176.392C49.707,176.392 50.342,174.931 50.342,173.513C50.342,172.021 49.662,170.616 47.934,170.616C46.221,170.616 45.645,172.079 45.645,173.571C45.645,175.003 46.383,176.392 48.008,176.392ZM51.553,177.323L50.297,177.323L50.297,176.288L50.268,176.288C49.855,177.13 48.895,177.499 47.831,177.499C45.482,177.499 44.315,175.64 44.315,173.482C44.315,171.325 45.468,169.509 47.801,169.509C48.569,169.509 49.722,169.804 50.268,170.706L50.297,170.706L50.297,166.777L51.553,166.777L51.553,177.323Z" style="fill:rgb(35,31,32);fill-rule:nonzero;"/>
        <path d="M60.948,176.392C62.263,176.392 63.326,175.359 63.326,173.513C63.326,171.665 62.263,170.616 60.948,170.616C59.634,170.616 58.57,171.665 58.57,173.513C58.57,175.359 59.634,176.392 60.948,176.392ZM60.948,169.509C63.371,169.509 64.655,171.267 64.655,173.513C64.655,175.743 63.371,177.499 60.948,177.499C58.526,177.499 57.241,175.743 57.241,173.513C57.241,171.267 58.526,169.509 60.948,169.509Z" style="fill:rgb(35,31,32);fill-rule:nonzero;"/>
        <path d="M66.68,170.794L65.394,170.794L65.394,169.687L66.68,169.687L66.68,168.55C66.68,167.308 67.418,166.659 68.792,166.659C69.028,166.659 69.368,166.702 69.604,166.777L69.604,167.87C69.383,167.796 69.117,167.767 68.895,167.767C68.29,167.767 67.935,167.958 67.935,168.622L67.935,169.687L69.412,169.687L69.412,170.794L67.935,170.794L67.935,177.323L66.68,177.323L66.68,170.794Z" style="fill:rgb(35,31,32);fill-rule:nonzero;"/>
        <path d="M76.311,176.142L79.826,176.142C81.052,176.142 81.805,175.417 81.805,174.251C81.805,172.876 80.697,172.493 79.516,172.493L76.311,172.493L76.311,176.142ZM76.311,171.312L79.117,171.312C80.712,171.312 81.362,170.749 81.362,169.628C81.362,168.15 80.343,167.958 79.117,167.958L76.311,167.958L76.311,171.312ZM74.907,166.777L78.733,166.777C79.649,166.777 80.904,166.777 81.524,167.161C82.219,167.573 82.766,168.314 82.766,169.362C82.766,170.484 82.189,171.325 81.2,171.726L81.2,171.755C82.5,172.034 83.209,172.995 83.209,174.294C83.209,175.831 82.086,177.323 80.003,177.323L74.907,177.323L74.907,166.777Z" style="fill:rgb(35,31,32);fill-rule:nonzero;"/>
        <path d="M86.873,172.966L90.448,172.966L88.69,168.046L88.66,168.046L86.873,172.966ZM87.922,166.777L89.473,166.777L93.594,177.323L92.043,177.323L90.891,174.148L86.43,174.148L85.249,177.323L83.801,177.323L87.922,166.777Z" style="fill:rgb(35,31,32);fill-rule:nonzero;"/>
        <path d="M100.759,169.864C100.596,168.343 99.606,167.708 98.144,167.708C96.947,167.708 95.78,168.136 95.78,169.509C95.78,172.109 102.531,170.277 102.531,174.427C102.531,176.673 100.331,177.573 98.41,177.573C96.046,177.573 94.052,176.407 94.052,173.853L95.382,173.853C95.382,175.624 96.859,176.392 98.454,176.392C99.724,176.392 101.128,175.993 101.128,174.472C101.128,171.577 94.377,173.482 94.377,169.612C94.377,167.485 96.268,166.527 98.203,166.527C100.36,166.527 102.014,167.544 102.088,169.864L100.759,169.864Z" style="fill:rgb(35,31,32);fill-rule:nonzero;"/>
        <path d="M104.26,166.777L111.188,166.777L111.188,167.958L105.664,167.958L105.664,171.312L110.508,171.312L110.508,172.493L105.664,172.493L105.664,177.323L104.26,177.323L104.26,166.777Z" style="fill:rgb(35,31,32);fill-rule:nonzero;"/>
        <rect x="115.753" y="172.626" width="7.385" height="1.182" style="fill:rgb(35,31,32);fill-rule:nonzero;"/>
        <path d="M137.984,177.323L136.522,177.323L134.114,168.46L134.084,168.46L131.647,177.323L130.185,177.323L127.482,166.777L128.914,166.777L130.981,175.55L131.011,175.55L133.375,166.777L134.897,166.777L137.231,175.55L137.26,175.55L139.402,166.777L140.805,166.777L137.984,177.323Z" style="fill:rgb(35,31,32);fill-rule:nonzero;"/>
        <path d="M147.261,172.773C147.187,171.577 146.316,170.616 145.06,170.616C143.76,170.616 142.948,171.591 142.875,172.773L147.261,172.773ZM148.472,174.9C148.132,176.599 146.936,177.499 145.208,177.499C142.771,177.499 141.619,175.802 141.545,173.482C141.545,171.179 143.051,169.509 145.134,169.509C147.837,169.509 148.665,172.034 148.59,173.882L142.875,173.882C142.831,175.21 143.583,176.392 145.252,176.392C146.301,176.392 147.01,175.905 147.231,174.9L148.472,174.9Z" style="fill:rgb(35,31,32);fill-rule:nonzero;"/>
        <path d="M159.241,172.138C159.049,171.179 158.399,170.616 157.35,170.616C155.534,170.616 154.972,172.064 154.972,173.601C154.972,175.019 155.608,176.392 157.203,176.392C158.428,176.392 159.137,175.698 159.3,174.53L160.585,174.53C160.305,176.407 159.153,177.499 157.217,177.499C154.883,177.499 153.643,175.89 153.643,173.601C153.643,171.312 154.825,169.509 157.247,169.509C158.99,169.509 160.349,170.321 160.542,172.138L159.241,172.138Z" style="fill:rgb(35,31,32);fill-rule:nonzero;"/>
        <path d="M161.975,169.687L163.157,169.687L163.157,171.296L163.186,171.296C163.792,170.056 164.633,169.464 165.993,169.509L165.993,170.839C163.969,170.839 163.23,171.976 163.23,173.925L163.23,177.323L161.975,177.323L161.975,169.687Z" style="fill:rgb(35,31,32);fill-rule:nonzero;"/>
        <path d="M172.27,172.773C172.196,171.577 171.325,170.616 170.069,170.616C168.769,170.616 167.958,171.591 167.883,172.773L172.27,172.773ZM173.481,174.9C173.141,176.599 171.945,177.499 170.217,177.499C167.78,177.499 166.627,175.802 166.553,173.482C166.553,171.179 168.06,169.509 170.143,169.509C172.846,169.509 173.673,172.034 173.599,173.882L167.883,173.882C167.838,175.21 168.592,176.392 170.261,176.392C171.31,176.392 172.019,175.905 172.241,174.9L173.481,174.9Z" style="fill:rgb(35,31,32);fill-rule:nonzero;"/>
        <path d="M179.657,173.38C178.681,174.103 175.845,173.394 175.845,175.271C175.845,176.097 176.554,176.392 177.323,176.392C178.977,176.392 179.657,175.372 179.657,174.663L179.657,173.38ZM181.695,177.294C181.473,177.427 181.163,177.499 180.793,177.499C180.143,177.499 179.73,177.146 179.73,176.318C179.036,177.146 178.106,177.499 177.042,177.499C175.653,177.499 174.516,176.894 174.516,175.359C174.516,173.63 175.801,173.245 177.101,173.009C178.475,172.73 179.67,172.847 179.67,171.888C179.67,170.78 178.755,170.616 177.972,170.616C176.909,170.616 176.125,170.943 176.067,172.064L174.811,172.064C174.885,170.173 176.333,169.509 178.046,169.509C179.42,169.509 180.912,169.819 180.912,171.607L180.912,175.536C180.912,176.126 180.912,176.392 181.311,176.392C181.428,176.392 181.562,176.362 181.695,176.318L181.695,177.294Z" style="fill:rgb(35,31,32);fill-rule:nonzero;"/>
        <path d="M184.635,169.687L186.157,169.687L186.157,170.794L184.635,170.794L184.635,175.536C184.635,176.126 184.797,176.216 185.581,176.216L186.157,176.216L186.157,177.323L185.196,177.323C183.897,177.323 183.379,177.058 183.379,175.653L183.379,170.794L182.08,170.794L182.08,169.687L183.379,169.687L183.379,167.398L184.635,167.398L184.635,169.687Z" style="fill:rgb(35,31,32);fill-rule:nonzero;"/>
        <path d="M192.876,172.773C192.802,171.577 191.931,170.616 190.675,170.616C189.375,170.616 188.563,171.591 188.49,172.773L192.876,172.773ZM194.087,174.9C193.748,176.599 192.551,177.499 190.823,177.499C188.386,177.499 187.234,175.802 187.161,173.482C187.161,171.179 188.667,169.509 190.75,169.509C193.453,169.509 194.28,172.034 194.206,173.882L188.49,173.882C188.445,175.21 189.199,176.392 190.868,176.392C191.917,176.392 192.625,175.905 192.847,174.9L194.087,174.9Z" style="fill:rgb(35,31,32);fill-rule:nonzero;"/>
        <path d="M204.857,172.138C204.665,171.179 204.015,170.616 202.966,170.616C201.149,170.616 200.588,172.064 200.588,173.601C200.588,175.019 201.223,176.392 202.819,176.392C204.044,176.392 204.753,175.698 204.916,174.53L206.201,174.53C205.92,176.407 204.768,177.499 202.833,177.499C200.5,177.499 199.258,175.89 199.258,173.601C199.258,171.312 200.44,169.509 202.863,169.509C204.606,169.509 205.964,170.321 206.157,172.138L204.857,172.138Z" style="fill:rgb(35,31,32);fill-rule:nonzero;"/>
        <path d="M207.634,166.777L208.89,166.777L208.89,170.81L208.919,170.81C209.318,169.878 210.426,169.509 211.327,169.509C213.335,169.509 213.956,170.661 213.956,172.3L213.956,177.323L212.701,177.323L212.701,172.153C212.701,171.208 212.11,170.616 211.15,170.616C209.628,170.616 208.89,171.636 208.89,173.009L208.89,177.323L207.634,177.323L207.634,166.777Z" style="fill:rgb(35,31,32);fill-rule:nonzero;"/>
        <path d="M221.179,172.773C221.105,171.577 220.234,170.616 218.978,170.616C217.678,170.616 216.866,171.591 216.792,172.773L221.179,172.773ZM222.39,174.9C222.05,176.599 220.854,177.499 219.125,177.499C216.689,177.499 215.537,175.802 215.463,173.482C215.463,171.179 216.969,169.509 219.052,169.509C221.755,169.509 222.583,172.034 222.508,173.882L216.792,173.882C216.748,175.21 217.501,176.392 219.17,176.392C220.219,176.392 220.928,175.905 221.15,174.9L222.39,174.9Z" style="fill:rgb(35,31,32);fill-rule:nonzero;"/>
        <path d="M223.839,169.687L225.021,169.687L225.021,170.81L225.05,170.81C225.626,169.937 226.439,169.509 227.517,169.509C228.462,169.509 229.304,169.864 229.615,170.81C230.131,169.982 231.018,169.509 232.007,169.509C233.529,169.509 234.548,170.144 234.548,171.726L234.548,177.323L233.292,177.323L233.292,172.316C233.292,171.37 233.042,170.616 231.815,170.616C230.589,170.616 229.822,171.386 229.822,172.568L229.822,177.323L228.566,177.323L228.566,172.316C228.566,171.325 228.255,170.616 227.133,170.616C225.656,170.616 225.095,171.976 225.095,172.568L225.095,177.323L223.839,177.323L223.839,169.687Z" style="fill:rgb(35,31,32);fill-rule:nonzero;"/>
        <path d="M236.543,169.687L237.798,169.687L237.798,177.323L236.543,177.323L236.543,169.687ZM237.798,168.314L236.543,168.314L236.543,166.777L237.798,166.777L237.798,168.314Z" style="fill:rgb(35,31,32);fill-rule:nonzero;"/>
        <path d="M240.545,174.915C240.59,176.038 241.58,176.392 242.599,176.392C243.381,176.392 244.446,176.216 244.446,175.255C244.446,173.29 239.453,174.62 239.453,171.681C239.453,170.144 240.959,169.509 242.303,169.509C244.017,169.509 245.317,170.04 245.435,171.902L244.179,171.902C244.106,170.927 243.219,170.616 242.407,170.616C241.654,170.616 240.782,170.823 240.782,171.591C240.782,172.478 242.112,172.655 243.279,172.921C244.534,173.202 245.775,173.63 245.775,175.093C245.775,176.925 244.076,177.499 242.525,177.499C240.812,177.499 239.364,176.806 239.291,174.915L240.545,174.915Z" style="fill:rgb(35,31,32);fill-rule:nonzero;"/>
        <path d="M248.936,169.687L250.458,169.687L250.458,170.794L248.936,170.794L248.936,175.536C248.936,176.126 249.098,176.216 249.881,176.216L250.458,176.216L250.458,177.323L249.497,177.323C248.198,177.323 247.68,177.058 247.68,175.653L247.68,170.794L246.38,170.794L246.38,169.687L247.68,169.687L247.68,167.398L248.936,167.398L248.936,169.687Z" style="fill:rgb(35,31,32);fill-rule:nonzero;"/>
        <path d="M251.833,169.687L253.014,169.687L253.014,171.296L253.043,171.296C253.649,170.056 254.491,169.464 255.85,169.509L255.85,170.839C253.827,170.839 253.087,171.976 253.087,173.925L253.087,177.323L251.833,177.323L251.833,169.687Z" style="fill:rgb(35,31,32);fill-rule:nonzero;"/>
        <path d="M259.823,178.343C259.232,179.819 258.73,180.38 257.608,180.38C257.312,180.38 257.017,180.351 256.736,180.247L256.736,179.095C256.971,179.169 257.222,179.273 257.475,179.273C257.992,179.273 258.272,179.036 258.508,178.579L259.026,177.278L255.998,169.687L257.415,169.687L259.646,175.935L259.674,175.935L261.816,169.687L263.147,169.687L259.823,178.343Z" style="fill:rgb(35,31,32);fill-rule:nonzero;"/>
    </g>
</svg>
