<svg xmlns="http://www.w3.org/2000/svg" viewBox="0 0 124.895 74.416">
  <g id="a_brand_of_pci_schwarz" transform="translate(0 -0.584)">
    <path id="Pfad_288" data-name="Pfad 288" d="M121.417,20.136a2.946,2.946,0,1,0,2.947,2.946A2.947,2.947,0,0,0,121.417,20.136Zm3.478,2.946a3.478,3.478,0,1,1-3.478-3.477A3.478,3.478,0,0,1,124.895,23.082Z"/>
    <rect id="Rechteck_19" data-name="Rechteck 19" width="11.469" height="33.987" transform="translate(105.128 21.396)"/>
    <path id="Pfad_289" data-name="Pfad 289" d="M11.746,24.8V41.884H23.914a8.541,8.541,0,1,0,0-17.082Zm0,20.487v10.1H.277V21.4H34.188a11.946,11.946,0,0,1,0,23.892Z"/>
    <path id="Pfad_290" data-name="Pfad 290" d="M63.156,55.382a16.993,16.993,0,0,1,0-33.987H91.8a11.949,11.949,0,0,1,11.947,11.948H88.43A8.541,8.541,0,0,0,79.889,24.8H70.332a8.541,8.541,0,0,0-8.542,8.541v10.1a8.542,8.542,0,0,0,8.542,8.542l9.557,0a8.541,8.541,0,0,0,8.541-8.541h15.317A11.945,11.945,0,0,1,91.8,55.382Z"/>
    <path id="Pfad_291" data-name="Pfad 291" d="M.267,74.6V60.049h9.2v1.782h-7.4v4.416H8.569V67.98H2.062V74.6Z"/>
    <path id="Pfad_292" data-name="Pfad 292" d="M13.911,62.346v-2.06H12.224v2.06Zm2.979,0v-2.06H15.2v2.06ZM10.671,71.2a4.894,4.894,0,0,0,.406,2.169,2.845,2.845,0,0,0,2.816,1.514,3.262,3.262,0,0,0,2.255-.831,3.532,3.532,0,0,0,.787-1.02L16.916,74.6H18.45V63.99H16.825V69.2a7.179,7.179,0,0,1-.334,2.446,2.288,2.288,0,0,1-2.309,1.663,1.613,1.613,0,0,1-1.616-.95,3.213,3.213,0,0,1-.235-1.327V63.99h-1.66Z"/>
    <path id="Pfad_293" data-name="Pfad 293" d="M21.026,74.6V63.99H22.57v1.831a4.04,4.04,0,0,1,.93-1.3,2.306,2.306,0,0,1,1.706-.767c.029,0,.08,0,.152.01l.371.039v1.882a2.269,2.269,0,0,0-.266-.04c-.081-.006-.17-.01-.267-.01a2.224,2.224,0,0,0-1.885.867,3.2,3.2,0,0,0-.66,2v6.1Z"/>
    <path id="Pfad_294" data-name="Pfad 294" d="M38.044,74.6a4.194,4.194,0,0,0,4.62-4.249,3.679,3.679,0,0,0-.893-2.623,4.431,4.431,0,0,0-1.526-.961,3.523,3.523,0,0,0,1.066-.852,3.473,3.473,0,0,0,.712-2.257,3.757,3.757,0,0,0-.578-2.079,3.635,3.635,0,0,0-3.311-1.525H32.439V74.6Zm-3.846-6.8h3.566a4.483,4.483,0,0,1,1.813.307,2.144,2.144,0,0,1,1.291,2.159,2.835,2.835,0,0,1-.441,1.6,2.63,2.63,0,0,1-2.357,1.049H34.2V67.792Zm0-6.1h3.2a4.365,4.365,0,0,1,1.77.278,1.913,1.913,0,0,1,1.056,1.921,2.037,2.037,0,0,1-.993,1.96,3.72,3.72,0,0,1-1.769.346H34.2Z"/>
    <path id="Pfad_295" data-name="Pfad 295" d="M44.983,69.525a3.036,3.036,0,0,0-.838,2.287A3.126,3.126,0,0,0,45,74.055a2.9,2.9,0,0,0,2.2.9,4.093,4.093,0,0,0,2.049-.525,4.2,4.2,0,0,0,1.426-1.238,2.69,2.69,0,0,0,.28.98,1.3,1.3,0,0,0,1.219.654,3.819,3.819,0,0,0,.541-.03,4.214,4.214,0,0,0,.577-.148V73.327c-.1.02-.2.035-.288.045s-.172.015-.244.015a.477.477,0,0,1-.438-.169.844.844,0,0,1-.1-.446V66.663a2.488,2.488,0,0,0-1.056-2.218,4.9,4.9,0,0,0-2.77-.713A4.454,4.454,0,0,0,45.8,64.5a3.174,3.174,0,0,0-1.159,2.728h1.516a2.636,2.636,0,0,1,.388-1.237,2.056,2.056,0,0,1,1.805-.753,2.947,2.947,0,0,1,1.692.411,1.5,1.5,0,0,1,.591,1.322,1.683,1.683,0,0,1-.109.683.88.88,0,0,1-.748.515l-2.59.357a3.818,3.818,0,0,0-2.2,1Zm1.607.762a3.534,3.534,0,0,1,1.327-.406l.983-.138a6.013,6.013,0,0,0,.921-.2,2.639,2.639,0,0,0,.768-.346v1.436A2.479,2.479,0,0,1,49.234,73a3.436,3.436,0,0,1-1.661.436,1.8,1.8,0,0,1-1.217-.445,1.53,1.53,0,0,1-.515-1.219A1.618,1.618,0,0,1,46.59,70.287Z"/>
    <path id="Pfad_296" data-name="Pfad 296" d="M54.835,71.2a4.88,4.88,0,0,0,.406,2.169,2.844,2.844,0,0,0,2.815,1.514,3.271,3.271,0,0,0,2.257-.831,3.544,3.544,0,0,0,.785-1.02L61.079,74.6h1.535V63.99H60.989V69.2a7.179,7.179,0,0,1-.334,2.446,2.29,2.29,0,0,1-2.31,1.663,1.611,1.611,0,0,1-1.615-.95,3.213,3.213,0,0,1-.235-1.327V63.99h-1.66Z"/>
    <rect id="Rechteck_20" data-name="Rechteck 20" width="4.532" height="1.832" transform="translate(64.905 68.03)"/>
    <path id="Pfad_297" data-name="Pfad 297" d="M73.849,74.6v-6.15h4.17a3.5,3.5,0,0,0,2.969-1.262,4.741,4.741,0,0,0,.966-2.966,4.18,4.18,0,0,0-1.083-3.074,3.834,3.834,0,0,0-2.852-1.094H72.054V74.6Zm5.537-8.378a3.184,3.184,0,0,1-1.963.565H73.849v-5.04h3.574a3.606,3.606,0,0,1,1.634.307,2.238,2.238,0,0,1,1.083,2.178A2.334,2.334,0,0,1,79.386,66.217Z"/>
    <path id="Pfad_298" data-name="Pfad 298" d="M83.577,74.6V63.99h1.542v1.831a4.046,4.046,0,0,1,.931-1.3,2.3,2.3,0,0,1,1.7-.767c.03,0,.081,0,.153.01l.37.039v1.882a2.254,2.254,0,0,0-.265-.04c-.082-.006-.17-.01-.267-.01a2.227,2.227,0,0,0-1.886.867,3.205,3.205,0,0,0-.659,2v6.1Z"/>
    <path id="Pfad_299" data-name="Pfad 299" d="M90.259,65.267a6.74,6.74,0,0,0-1.236,4.258A6.223,6.223,0,0,0,90.2,73.5a3.828,3.828,0,0,0,3.168,1.48,3.968,3.968,0,0,0,3.529-1.673,7.378,7.378,0,0,0,1.137-4.238,5.645,5.645,0,0,0-1.291-4.02,4.176,4.176,0,0,0-3.158-1.366A3.993,3.993,0,0,0,90.259,65.267Zm1.11,7.05a5.419,5.419,0,0,1-.677-2.822,6.243,6.243,0,0,1,.677-3.01,2.289,2.289,0,0,1,2.167-1.248A2.408,2.408,0,0,1,95.9,66.7a5.739,5.739,0,0,1,.434,2.416,7.228,7.228,0,0,1-.6,2.985,2.211,2.211,0,0,1-2.215,1.342,2.32,2.32,0,0,1-2.149-1.129Z"/>
    <path id="Pfad_300" data-name="Pfad 300" d="M100.363,62.375a3.423,3.423,0,0,1,.352-1.624,2.385,2.385,0,0,1,2.193-.91c.1,0,.209,0,.316.01s.233.016.37.029V61.5c-.169-.013-.29-.021-.365-.025s-.146,0-.212,0q-.741,0-.885.42a9.138,9.138,0,0,0-.144,2.144h1.606v1.406h-1.625V74.6h-1.606v-9.15H99.019V64.039h1.344V62.375Z"/>
    <path id="Pfad_301" data-name="Pfad 301" d="M105.092,62.068V60.049h1.652v2.019Zm0,12.527V64.039h1.652V74.6Z"/>
    <path id="Pfad_302" data-name="Pfad 302" d="M109.56,73.926A3.788,3.788,0,0,0,112.615,75a3.934,3.934,0,0,0,2.982-1.029,3.43,3.43,0,0,0,.98-2.446,2.468,2.468,0,0,0-.949-2.149,7.827,7.827,0,0,0-2.345-.9l-1.075-.287a3.562,3.562,0,0,1-1.064-.436,1.274,1.274,0,0,1-.623-1.109,1.251,1.251,0,0,1,.474-1.02,2.165,2.165,0,0,1,1.394-.386,2.35,2.35,0,0,1,1.941.7,2.188,2.188,0,0,1,.387,1.1h1.534a3.258,3.258,0,0,0-.585-1.921,3.55,3.55,0,0,0-3.151-1.406,3.718,3.718,0,0,0-2.658.931,3.2,3.2,0,0,0-.988,2.436,2.3,2.3,0,0,0,1.048,2,5.97,5.97,0,0,0,1.823.753l1.29.356a6.122,6.122,0,0,1,1.389.5,1.161,1.161,0,0,1,.551,1.04,1.459,1.459,0,0,1-.685,1.331,2.922,2.922,0,0,1-1.589.432,2.439,2.439,0,0,1-2.13-.862,2.756,2.756,0,0,1-.406-1.366H108.6a4.274,4.274,0,0,0,.961,2.658Z"/>
    <path id="Pfad_303" data-name="Pfad 303" d="M120.682,22.779h.588c.5,0,.951-.025.951-.595,0-.48-.414-.555-.795-.555h-.744Zm-.562-1.6h1.4c.86,0,1.266.339,1.266,1.033a.929.929,0,0,1-.951.984l1.033,1.6h-.6l-.984-1.554h-.6v1.554h-.562V21.175Z"/>
    <path id="Pfad_304" data-name="Pfad 304" d="M2.842,5.9h2.7L4.214,2.1H4.177L2.842,5.9ZM3.386.584H5.03l3.4,8.825H6.772L5.944,7.073H2.422L1.594,9.409H0Z"/>
    <path id="Pfad_305" data-name="Pfad 305" d="M15.691,3.958c-1.186,0-1.792.89-1.792,2.262,0,1.285.656,2.249,1.792,2.249,1.286,0,1.768-1.137,1.768-2.249,0-1.15-.6-2.262-1.768-2.262ZM12.54.584h1.409V3.847h.025a2.326,2.326,0,0,1,1.9-1c2.015,0,2.991,1.52,2.991,3.4,0,1.73-.878,3.337-2.756,3.337A2.283,2.283,0,0,1,13.9,8.531h-.024v.878H12.54V.584Z"/>
    <path id="Pfad_306" data-name="Pfad 306" d="M20.052,3.019h1.323V4.255H21.4a2.077,2.077,0,0,1,1.867-1.409,3.406,3.406,0,0,1,.531.037V4.242a3.366,3.366,0,0,0-.606-.061c-.951,0-1.73.766-1.73,2.187V9.409H20.052V3.019Z"/>
    <path id="Pfad_307" data-name="Pfad 307" d="M28.343,6.208a4.957,4.957,0,0,1-1.73.383c-.606.1-1.149.321-1.149,1.063,0,.642.8.815,1.3.815.618,0,1.582-.321,1.582-1.211V6.208Zm1.409,1.779c0,.347.075.482.334.482h.148a1.265,1.265,0,0,0,.2-.024v.976a3.543,3.543,0,0,1-.889.161c-.582,0-.977-.2-1.088-.779a3.28,3.28,0,0,1-2.213.779,1.943,1.943,0,0,1-2.187-1.867c0-1.594,1.273-1.854,2.459-1.989,1.026-.2,1.916-.062,1.916-.9,0-.741-.766-.865-1.323-.865-.791,0-1.347.321-1.408,1.014H24.29c.1-1.644,1.482-2.126,2.9-2.126,1.248,0,2.558.507,2.558,1.854Z"/>
    <path id="Pfad_308" data-name="Pfad 308" d="M31.271,3.019H32.6v.939l.025.025a2.3,2.3,0,0,1,1.99-1.137,2.01,2.01,0,0,1,2.262,2.175V9.409H35.473V5.392c-.037-1-.408-1.434-1.249-1.434a1.558,1.558,0,0,0-1.545,1.681v3.77H31.271V3.019Z"/>
    <path id="Pfad_309" data-name="Pfad 309" d="M41.229,8.469c1.249,0,1.793-1.149,1.793-2.261,0-1.422-.681-2.25-1.768-2.25-1.323,0-1.792,1.187-1.792,2.324C39.462,7.382,40.005,8.469,41.229,8.469Zm3.152.94H43.046V8.543h-.024a2.113,2.113,0,0,1-1.978,1.039c-2.015,0-2.991-1.5-2.991-3.412,0-2.323,1.372-3.324,2.768-3.324a2.478,2.478,0,0,1,2.126,1h.025V.584h1.409Z"/>
    <path id="Pfad_310" data-name="Pfad 310" d="M54.092,6.208c0-1.1-.556-2.25-1.817-2.25s-1.817,1.149-1.817,2.25.556,2.261,1.817,2.261,1.817-1.149,1.817-2.261Zm-5.043,0a3.229,3.229,0,1,1,6.452,0,3.229,3.229,0,1,1-6.452,0Z"/>
    <path id="Pfad_311" data-name="Pfad 311" d="M56.042,3.019h1.05V2.487c0-1.631.853-1.9,1.767-1.9a3.831,3.831,0,0,1,.989.086v1.1a2.358,2.358,0,0,0-.655-.075c-.383,0-.692.136-.692.668v.655h1.2v1.05H58.5v5.34H57.092V4.069h-1.05V3.019Z"/>
  </g>
</svg>